<mxfile host="app.diagrams.net" modified="2023-04-20T16:41:56.010Z" agent="Mozilla/5.0 (Windows NT 10.0; Win64; x64) AppleWebKit/537.36 (KHTML, like Gecko) Chrome/112.0.0.0 Safari/537.36" version="21.2.1" etag="Ri_AIokF3Y5_fyRdjjH_" type="github">
  <diagram name="Page-1" id="VxXKaTozwcMmr6UAu_Q7">
    <mxGraphModel>
      <root>
        <mxCell id="0" />
        <mxCell id="1" parent="0" />
      </root>
    </mxGraphModel>
  </diagram>
</mxfile>
